<?xml version="1.0" encoding="UTF-8" standalone="no"?>
<!DOCTYPE svg PUBLIC "-//W3C//DTD SVG 1.1//EN"
 "http://www.w3.org/Graphics/SVG/1.1/DTD/svg11.dtd">
<!-- Generated by graphviz version 2.43.0 (0)
 -->
<!-- Title: p1_part1 Pages: 1 -->
<svg width="842pt" height="307pt"
 viewBox="7.20 7.20 834.80 299.80" xmlns="http://www.w3.org/2000/svg" xmlns:xlink="http://www.w3.org/1999/xlink">
<g id="graph0" class="graph" transform="scale(1 1) rotate(0) translate(18 289)">
<title>p1_part1</title>
<polygon fill="white" stroke="transparent" points="-10.8,10.8 -10.8,-281.8 816.8,-281.8 816.8,10.8 -10.8,10.8"/>
<text text-anchor="middle" x="403" y="-249.4" font-family="Inter" font-size="22.00">Project 1 Part 1 — EC2 Web Tier + S3 + SimpleDB (Emulated Inference)</text>
<g id="clust1" class="cluster">
<title>cluster_client</title>
<path fill="white" stroke="#d1d5db" d="M306,-172C306,-172 436,-172 436,-172 442,-172 448,-178 448,-184 448,-184 448,-219 448,-219 448,-225 442,-231 436,-231 436,-231 306,-231 306,-231 300,-231 294,-225 294,-219 294,-219 294,-184 294,-184 294,-178 300,-172 306,-172"/>
<text text-anchor="middle" x="371" y="-215.8" font-family="Inter" font-size="14.00">Client</text>
</g>
<g id="clust2" class="cluster">
<title>cluster_aws</title>
<path fill="white" stroke="#d1d5db" d="M266,-8C266,-8 540,-8 540,-8 546,-8 552,-14 552,-20 552,-20 552,-128 552,-128 552,-134 546,-140 540,-140 540,-140 266,-140 266,-140 260,-140 254,-134 254,-128 254,-128 254,-20 254,-20 254,-14 260,-8 266,-8"/>
<text text-anchor="middle" x="403" y="-124.8" font-family="Inter" font-size="14.00">AWS</text>
</g>
<!-- client -->
<g id="node1" class="node">
<title>client</title>
<path fill="#eef2ff" stroke="#111827" stroke-width="1.6" d="M435.5,-208C435.5,-208 306.5,-208 306.5,-208 300.5,-208 294.5,-202 294.5,-196 294.5,-196 294.5,-184 294.5,-184 294.5,-178 300.5,-172 306.5,-172 306.5,-172 435.5,-172 435.5,-172 441.5,-172 447.5,-178 447.5,-184 447.5,-184 447.5,-196 447.5,-196 447.5,-202 441.5,-208 435.5,-208"/>
<text text-anchor="middle" x="371" y="-193.4" font-family="Inter" font-size="12.00">User / Client</text>
<text text-anchor="middle" x="371" y="-180.4" font-family="Inter" font-size="12.00">HTTP POST / (inputFile)</text>
</g>
<!-- web -->
<g id="node2" class="node">
<title>web</title>
<path fill="#fffbeb" stroke="#111827" stroke-width="1.6" d="M384,-117C384,-117 312,-117 312,-117 306,-117 300,-111 300,-105 300,-105 300,-93 300,-93 300,-87 306,-81 312,-81 312,-81 384,-81 384,-81 390,-81 396,-87 396,-93 396,-93 396,-105 396,-105 396,-111 390,-117 384,-117"/>
<text text-anchor="middle" x="348" y="-102.4" font-family="Inter" font-size="12.00">EC2 Web Tier</text>
<text text-anchor="middle" x="348" y="-89.4" font-family="Inter" font-size="12.00">server.py</text>
</g>
<!-- client&#45;&gt;web -->
<g id="edge1" class="edge">
<title>client&#45;&gt;web</title>
<path fill="none" stroke="#374151" stroke-width="1.4" d="M327.91,-171.88C323.18,-168.31 319,-164.05 316,-159 309.33,-147.76 314.64,-135.05 322.72,-124.31"/>
<polygon fill="#374151" stroke="#374151" stroke-width="1.4" points="325.28,-126.16 328.64,-117.24 320.45,-122.12 325.28,-126.16"/>
<text text-anchor="middle" x="349.5" y="-151" font-family="Inter" font-size="10.00">upload image</text>
</g>
<!-- web&#45;&gt;client -->
<g id="edge4" class="edge">
<title>web&#45;&gt;client</title>
<path fill="none" stroke="#374151" stroke-width="1.4" d="M364.63,-117.16C371.76,-125.7 379.29,-136.63 383,-148 384.58,-152.85 384.45,-158.05 383.4,-163.06"/>
<polygon fill="#374151" stroke="#374151" stroke-width="1.4" points="380.36,-162.24 380.72,-171.77 386.38,-164.1 380.36,-162.24"/>
<text text-anchor="middle" x="449" y="-151" font-family="Inter" font-size="10.00">return: filename:prediction</text>
</g>
<!-- s3 -->
<g id="node3" class="node">
<title>s3</title>
<path fill="#fee2e2" stroke="#111827" stroke-width="1.6" d="M382,-44C382,-44 266,-44 266,-44 260,-44 254,-38 254,-32 254,-32 254,-20 254,-20 254,-14 260,-8 266,-8 266,-8 382,-8 382,-8 388,-8 394,-14 394,-20 394,-20 394,-32 394,-32 394,-38 388,-44 382,-44"/>
<text text-anchor="middle" x="324" y="-29.4" font-family="Inter" font-size="12.00">S3 Input Bucket</text>
<text text-anchor="middle" x="324" y="-16.4" font-family="Inter" font-size="12.00">&lt;ASU_ID&gt;&#45;in&#45;bucket</text>
</g>
<!-- web&#45;&gt;s3 -->
<g id="edge2" class="edge">
<title>web&#45;&gt;s3</title>
<path fill="none" stroke="#374151" stroke-width="1.4" d="M333.64,-80.79C331,-76.81 328.58,-72.43 327,-68 325.37,-63.41 324.39,-58.35 323.84,-53.41"/>
<polygon fill="#374151" stroke="#374151" stroke-width="1.4" points="326.97,-52.95 323.24,-44.18 320.68,-53.36 326.97,-52.95"/>
<text text-anchor="middle" x="370" y="-60" font-family="Inter" font-size="10.00">PutObject(image)</text>
</g>
<!-- sdb -->
<g id="node4" class="node">
<title>sdb</title>
<path fill="#dbeafe" stroke="#111827" stroke-width="1.6" d="M540,-44C540,-44 424,-44 424,-44 418,-44 412,-38 412,-32 412,-32 412,-20 412,-20 412,-14 418,-8 424,-8 424,-8 540,-8 540,-8 546,-8 552,-14 552,-20 552,-20 552,-32 552,-32 552,-38 546,-44 540,-44"/>
<text text-anchor="middle" x="482" y="-29.4" font-family="Inter" font-size="12.00">SimpleDB Domain</text>
<text text-anchor="middle" x="482" y="-16.4" font-family="Inter" font-size="12.00">&lt;ASU_ID&gt;&#45;simpleDB</text>
</g>
<!-- web&#45;&gt;sdb -->
<g id="edge3" class="edge">
<title>web&#45;&gt;sdb</title>
<path fill="none" stroke="#374151" stroke-width="1.4" d="M386.82,-80.88C395.52,-76.83 404.64,-72.4 413,-68 424.2,-62.11 436.14,-55.23 446.89,-48.82"/>
<polygon fill="#374151" stroke="#374151" stroke-width="1.4" points="448.76,-51.37 454.84,-44.02 445.5,-45.97 448.76,-51.37"/>
<text text-anchor="middle" x="490" y="-60" font-family="Inter" font-size="10.00">GetAttributes(filename)</text>
</g>
</g>
</svg>
