<?xml version="1.0" encoding="UTF-8" standalone="no"?>
<!DOCTYPE svg PUBLIC "-//W3C//DTD SVG 1.1//EN"
 "http://www.w3.org/Graphics/SVG/1.1/DTD/svg11.dtd">
<!-- Generated by graphviz version 2.43.0 (0)
 -->
<!-- Title: p2_part1 Pages: 1 -->
<svg width="709pt" height="358pt"
 viewBox="7.20 7.20 701.80 350.80" xmlns="http://www.w3.org/2000/svg" xmlns:xlink="http://www.w3.org/1999/xlink">
<g id="graph0" class="graph" transform="scale(1 1) rotate(0) translate(18 340)">
<title>p2_part1</title>
<polygon fill="white" stroke="transparent" points="-10.8,10.8 -10.8,-332.8 683.8,-332.8 683.8,10.8 -10.8,10.8"/>
<text text-anchor="middle" x="336.5" y="-300.4" font-family="Inter" font-size="22.00">Project 2 Part 1 — Serverless Face Pipeline (Lambda + SQS)</text>
<g id="clust1" class="cluster">
<title>cluster_client</title>
<path fill="white" stroke="#d1d5db" d="M284,-212C284,-212 498,-212 498,-212 504,-212 510,-218 510,-224 510,-224 510,-270 510,-270 510,-276 504,-282 498,-282 498,-282 284,-282 284,-282 278,-282 272,-276 272,-270 272,-270 272,-224 272,-224 272,-218 278,-212 284,-212"/>
<text text-anchor="middle" x="391" y="-266.8" font-family="Inter" font-size="14.00">Client</text>
</g>
<g id="clust2" class="cluster">
<title>cluster_lambda</title>
<path fill="white" stroke="#d1d5db" d="M157,-110C157,-110 403,-110 403,-110 409,-110 415,-116 415,-122 415,-122 415,-168 415,-168 415,-174 409,-180 403,-180 403,-180 157,-180 157,-180 151,-180 145,-174 145,-168 145,-168 145,-122 145,-122 145,-116 151,-110 157,-110"/>
<text text-anchor="middle" x="280" y="-164.8" font-family="Inter" font-size="14.00">AWS Lambda</text>
</g>
<g id="clust3" class="cluster">
<title>cluster_sqs</title>
<path fill="white" stroke="#d1d5db" d="M149,-8C149,-8 441,-8 441,-8 447,-8 453,-14 453,-20 453,-20 453,-66 453,-66 453,-72 447,-78 441,-78 441,-78 149,-78 149,-78 143,-78 137,-72 137,-66 137,-66 137,-20 137,-20 137,-14 143,-8 149,-8"/>
<text text-anchor="middle" x="295" y="-62.8" font-family="Inter" font-size="14.00">SQS</text>
</g>
<!-- client -->
<g id="node1" class="node">
<title>client</title>
<path fill="#eef2ff" stroke="#111827" stroke-width="1.6" d="M498.5,-259C498.5,-259 283.5,-259 283.5,-259 277.5,-259 271.5,-253 271.5,-247 271.5,-247 271.5,-224 271.5,-224 271.5,-218 277.5,-212 283.5,-212 283.5,-212 498.5,-212 498.5,-212 504.5,-212 510.5,-218 510.5,-224 510.5,-224 510.5,-247 510.5,-247 510.5,-253 504.5,-259 498.5,-259"/>
<text text-anchor="middle" x="391" y="-245.4" font-family="Inter" font-size="12.00">Client</text>
<text text-anchor="middle" x="391" y="-232.4" font-family="Inter" font-size="12.00">Invoke Function URL</text>
<text text-anchor="middle" x="391" y="-219.4" font-family="Inter" font-size="12.00">(base64 frame, request_id, filename)</text>
</g>
<!-- fd -->
<g id="node2" class="node">
<title>fd</title>
<path fill="#fffbeb" stroke="#111827" stroke-width="1.6" d="M265,-157C265,-157 157,-157 157,-157 151,-157 145,-151 145,-145 145,-145 145,-122 145,-122 145,-116 151,-110 157,-110 157,-110 265,-110 265,-110 271,-110 277,-116 277,-122 277,-122 277,-145 277,-145 277,-151 271,-157 265,-157"/>
<text text-anchor="middle" x="211" y="-143.4" font-family="Inter" font-size="12.00">face&#45;detection</text>
<text text-anchor="middle" x="211" y="-130.4" font-family="Inter" font-size="12.00">(Function URL)</text>
<text text-anchor="middle" x="211" y="-117.4" font-family="Inter" font-size="12.00">MTCNN crops faces</text>
</g>
<!-- client&#45;&gt;fd -->
<g id="edge1" class="edge">
<title>client&#45;&gt;fd</title>
<path fill="none" stroke="#374151" stroke-width="1.4" d="M346.68,-211.98C328.11,-202.36 306.38,-190.87 287,-180 276.84,-174.3 266.04,-167.99 255.86,-161.93"/>
<polygon fill="#374151" stroke="#374151" stroke-width="1.4" points="257.2,-159.06 247.86,-157.14 253.97,-164.47 257.2,-159.06"/>
<text text-anchor="middle" x="347.5" y="-191" font-family="Inter" font-size="10.00">HTTP JSON</text>
</g>
<!-- resp -->
<g id="node5" class="node">
<title>resp</title>
<path fill="#fef3c7" stroke="#111827" stroke-width="1.6" d="M441,-55C441,-55 313,-55 313,-55 307,-55 301,-49 301,-43 301,-43 301,-20 301,-20 301,-14 307,-8 313,-8 313,-8 441,-8 441,-8 447,-8 453,-14 453,-20 453,-20 453,-43 453,-43 453,-49 447,-55 441,-55"/>
<text text-anchor="middle" x="377" y="-41.4" font-family="Inter" font-size="12.00">Response Queue</text>
<text text-anchor="middle" x="377" y="-28.4" font-family="Inter" font-size="12.00">&lt;ASU_ID&gt;&#45;resp&#45;queue</text>
<text text-anchor="middle" x="377" y="-15.4" font-family="Inter" font-size="12.00">(request_id, result)</text>
</g>
<!-- client&#45;&gt;resp -->
<g id="edge5" class="edge">
<title>client&#45;&gt;resp</title>
<path fill="none" stroke="#374151" stroke-width="1.4" stroke-dasharray="5,2" d="M418.53,-211.86C450.72,-182.52 496.54,-129.92 471,-86 464.98,-75.65 456.13,-67.14 446.23,-60.19"/>
<polygon fill="#374151" stroke="#374151" stroke-width="1.4" points="447.76,-57.42 438.49,-55.18 444.33,-62.71 447.76,-57.42"/>
<text text-anchor="middle" x="511" y="-131" font-family="Inter" font-size="10.00">Poll for result</text>
</g>
<!-- req -->
<g id="node4" class="node">
<title>req</title>
<path fill="#fef3c7" stroke="#111827" stroke-width="1.6" d="M271,-55C271,-55 149,-55 149,-55 143,-55 137,-49 137,-43 137,-43 137,-20 137,-20 137,-14 143,-8 149,-8 149,-8 271,-8 271,-8 277,-8 283,-14 283,-20 283,-20 283,-43 283,-43 283,-49 277,-55 271,-55"/>
<text text-anchor="middle" x="210" y="-41.4" font-family="Inter" font-size="12.00">Request Queue</text>
<text text-anchor="middle" x="210" y="-28.4" font-family="Inter" font-size="12.00">&lt;ASU_ID&gt;&#45;req&#45;queue</text>
<text text-anchor="middle" x="210" y="-15.4" font-family="Inter" font-size="12.00">(per&#45;face jobs)</text>
</g>
<!-- fd&#45;&gt;req -->
<g id="edge2" class="edge">
<title>fd&#45;&gt;req</title>
<path fill="none" stroke="#374151" stroke-width="1.4" d="M174.33,-109.77C170.59,-105.97 167.31,-101.71 165,-97 159.02,-84.84 164.45,-72.41 173.33,-61.75"/>
<polygon fill="#374151" stroke="#374151" stroke-width="1.4" points="175.76,-63.76 179.58,-55.02 171.14,-59.47 175.76,-63.76"/>
<text text-anchor="middle" x="228" y="-89" font-family="Inter" font-size="10.00">SendMessage(face crops)</text>
</g>
<!-- fr -->
<g id="node3" class="node">
<title>fr</title>
<path fill="#fffbeb" stroke="#111827" stroke-width="1.6" d="M402.5,-157C402.5,-157 307.5,-157 307.5,-157 301.5,-157 295.5,-151 295.5,-145 295.5,-145 295.5,-122 295.5,-122 295.5,-116 301.5,-110 307.5,-110 307.5,-110 402.5,-110 402.5,-110 408.5,-110 414.5,-116 414.5,-122 414.5,-122 414.5,-145 414.5,-145 414.5,-151 408.5,-157 402.5,-157"/>
<text text-anchor="middle" x="355" y="-143.4" font-family="Inter" font-size="12.00">face&#45;recognition</text>
<text text-anchor="middle" x="355" y="-130.4" font-family="Inter" font-size="12.00">(SQS trigger)</text>
<text text-anchor="middle" x="355" y="-117.4" font-family="Inter" font-size="12.00">FaceNet / ResNet</text>
</g>
<!-- fr&#45;&gt;resp -->
<g id="edge4" class="edge">
<title>fr&#45;&gt;resp</title>
<path fill="none" stroke="#374151" stroke-width="1.4" d="M359.99,-109.81C362.97,-96.26 366.8,-78.84 370.08,-63.97"/>
<polygon fill="#374151" stroke="#374151" stroke-width="1.4" points="373.17,-64.57 372.03,-55.1 367.02,-63.21 373.17,-64.57"/>
<text text-anchor="middle" x="415.5" y="-89" font-family="Inter" font-size="10.00">SendMessage(result)</text>
</g>
<!-- req&#45;&gt;fr -->
<g id="edge3" class="edge">
<title>req&#45;&gt;fr</title>
<path fill="none" stroke="#374151" stroke-width="1.4" d="M244.91,-55.07C259.29,-64.49 276.04,-75.63 291,-86 299.56,-91.93 308.66,-98.42 317.23,-104.63"/>
<polygon fill="#374151" stroke="#374151" stroke-width="1.4" points="315.47,-107.24 324.6,-109.99 319.17,-102.15 315.47,-107.24"/>
<text text-anchor="middle" x="322" y="-89" font-family="Inter" font-size="10.00">Trigger</text>
</g>
</g>
</svg>
